<mxfile host="app.diagrams.net" modified="2024-10-05T18:39:06.501Z" agent="Mozilla/5.0 (X11; Linux x86_64; rv:131.0) Gecko/20100101 Firefox/131.0" version="24.6.4" etag="OrzGjzR9RDkMmPDjX0P1" type="github">
  <diagram name="Page-1" id="zDAk50QZeVjsHr-TBV54">
    <mxGraphModel>
      <root>
        <mxCell id="0" />
        <mxCell id="1" parent="0" />
      </root>
    </mxGraphModel>
  </diagram>
</mxfile>
